<svg width="48" height="48" viewBox="0 0 48 48" fill="none" xmlns="http://www.w3.org/2000/svg">
<mask id="mask0_184_9" style="mask-type:alpha" maskUnits="userSpaceOnUse" x="0" y="0" width="48" height="48">
<rect width="48" height="48" fill="#D9D9D9"/>
</mask>
<g mask="url(#mask0_184_9)">
<path d="M38.24 30.0089C36.0533 30.0089 33.9378 29.6533 31.9644 29.0133C31.3422 28.8 30.6489 28.96 30.1689 29.44L27.3778 32.9422C22.3467 30.5422 17.6356 26.0089 15.1289 20.8L18.5956 17.8489C19.0756 17.3511 19.2178 16.6578 19.0222 16.0356C18.3644 14.0622 18.0267 11.9467 18.0267 9.76C18.0267 8.8 17.2267 8 16.2667 8H10.1156C9.15556 8 8 8.42667 8 9.76C8 26.2756 21.7422 40 38.24 40C39.5022 40 40 38.88 40 37.9022V31.7689C40 30.8089 39.2 30.0089 38.24 30.0089Z" fill="#999999"/>
</g>
</svg>
