<svg width="49" height="59" viewBox="0 0 49 59" fill="none" xmlns="http://www.w3.org/2000/svg">
<path d="M2.7462 53.752H1.9762V50.896H2.7462V53.752ZM2.7462 49.44H1.9762V46.472H0.450195V55.222H4.2442V46.472H2.7462V49.44ZM7.0022 53.752H6.2182V50.896H7.0022V53.752ZM7.0022 49.44H6.2182V46.472H4.7342V55.222H8.5142V46.472H7.0022V49.44ZM12.2802 50.07H11.0202V45.31H9.2002V58.204H11.0202V51.596H12.2802V50.07Z" fill="#143078"/>
<path d="M21.0011 47.886H14.0291V51.484H23.0731V50.084H15.8491V49.188H22.8211V45.604H14.0011V47.004H21.0011V47.886ZM15.8911 54.452H14.0431V57.98H23.1151V56.51H15.8911V54.452ZM12.5731 52.282V53.752H24.2491V52.282H12.5731Z" fill="#143078"/>
<path d="M32.354 51.022C30.324 50.392 29.456 48.88 29.456 47.326V46.01H27.58V47.172C27.58 48.922 26.712 50.644 24.556 51.358L25.522 52.814C26.992 52.296 27.986 51.302 28.546 50.042C29.092 51.134 30.03 52.002 31.388 52.45L32.354 51.022ZM30.688 56.776C29.036 56.776 28.154 56.44 28.154 55.712C28.154 54.998 29.036 54.662 30.688 54.662C32.326 54.662 33.208 54.998 33.208 55.712C33.208 56.44 32.326 56.776 30.688 56.776ZM30.688 53.234C28 53.234 26.32 54.158 26.32 55.712C26.32 57.28 28 58.204 30.688 58.204C33.362 58.204 35.042 57.28 35.042 55.712C35.042 54.158 33.362 53.234 30.688 53.234ZM34.902 48.306V45.324H33.054V52.94H34.902V49.832H36.61V48.306H34.902Z" fill="#143078"/>
<path d="M44.2249 50.224C42.8249 50.518 41.5509 50.602 39.2549 50.616V47.578H43.1609V46.094H37.4209V52.1H38.4989C41.3549 52.1 42.8249 52.03 44.4069 51.68L44.2249 50.224ZM40.5149 54.55H45.2749V56.608H40.5149V54.55ZM38.6949 58.05H47.0809V53.094H38.6949V58.05ZM48.7889 48.208H47.0809V45.296H45.2329V52.534H47.0809V49.706H48.7889V48.208Z" fill="#143078"/>
<path d="M42.2466 0.752531C42.2466 0.729015 42.2466 0.705498 42.2466 0.685901C42.2466 0.666304 42.2387 0.642787 42.2347 0.62319C42.2308 0.599673 42.2228 0.576157 42.2189 0.55264C42.2149 0.533043 42.207 0.513446 42.1991 0.493849C42.1912 0.470332 42.1793 0.446815 42.1675 0.423299C42.1596 0.407621 42.1477 0.388024 42.1398 0.372346C42.124 0.34883 42.1081 0.325313 42.0923 0.301796C42.0844 0.293958 42.0804 0.286119 42.0765 0.27828C42.0725 0.270441 42.0646 0.266521 42.0607 0.262602C42.0409 0.243005 42.0211 0.223408 42.0013 0.203811C41.9895 0.192052 41.9736 0.180294 41.9618 0.168536C41.942 0.152858 41.9183 0.13718 41.8985 0.121502C41.8826 0.109744 41.8668 0.101905 41.851 0.090147C41.8273 0.0783887 41.8035 0.0666304 41.7798 0.0587915C41.76 0.0509526 41.7442 0.0431138 41.7244 0.0352749C41.7205 0.0352749 41.7165 0.0313555 41.7126 0.0313555C41.6928 0.0235166 41.673 0.0235166 41.6532 0.0195972C41.6334 0.0156777 41.6137 0.00783887 41.5939 0.00783887C41.5662 0.00391943 41.5425 0.00391943 41.5148 0C41.495 0 41.4792 0 41.4594 0C41.4317 0 41.4 0.00391943 41.3724 0.00783887C41.3565 0.00783887 41.3407 0.00783887 41.3249 0.0117583C41.2814 0.0195972 41.2379 0.0313555 41.1943 0.0470332C41.1864 0.0470332 41.1825 0.0548721 41.1746 0.0548721C41.139 0.0705498 41.1034 0.0862275 41.0678 0.105825H41.0598L6.62466 20.9063C6.35171 21.0709 6.20535 21.3844 6.25677 21.698C6.3082 22.0115 6.54555 22.2663 6.85805 22.3369L18.7729 25.1236L22.4834 35.4787C22.4834 35.4787 22.4914 35.4944 22.4953 35.5022C22.523 35.5689 22.5546 35.6316 22.5982 35.6904C22.6298 35.7374 22.6694 35.7766 22.7089 35.8119C22.7247 35.8236 22.7406 35.8315 22.7524 35.8432C22.7643 35.8511 22.7762 35.8589 22.788 35.8667C22.8474 35.9059 22.9107 35.9373 22.974 35.9569C22.9819 35.9569 22.9937 35.9608 23.0016 35.9647C23.0768 35.9843 23.148 36 23.2232 36H23.239C23.239 36 23.2548 36 23.2588 35.9961C23.326 35.9961 23.3893 35.9804 23.4526 35.9608C23.4684 35.9569 23.4882 35.949 23.504 35.9451C23.5713 35.9177 23.6385 35.8863 23.6979 35.8432C23.6979 35.8432 23.7018 35.8393 23.7058 35.8354C23.7453 35.804 23.7849 35.7688 23.8205 35.7296L30.1893 28.4159L38.8644 30.8381C38.9356 30.8577 39.0068 30.8695 39.078 30.8695C39.2362 30.8695 39.3945 30.8224 39.529 30.7284C39.7228 30.5951 39.8454 30.3795 39.8652 30.1483L42.2466 0.838759C42.2466 0.838759 42.2466 0.827 42.2466 0.819162C42.2466 0.795645 42.2466 0.772128 42.2466 0.748612V0.752531ZM25.2762 26.0133C25.2446 26.0682 25.2169 26.123 25.1971 26.1857L23.1717 32.7194L20.2801 24.6454L36.4197 7.52531L25.2723 26.0172L25.2762 26.0133ZM26.4827 27.3772L28.5121 27.9456L25.0864 31.8768L26.4827 27.3772Z" fill="#143078"/>
</svg>
