<svg width="50" height="58" viewBox="0 0 50 58" fill="none" xmlns="http://www.w3.org/2000/svg">
<path d="M3.2462 52.752H2.4762V49.896H3.2462V52.752ZM3.2462 48.44H2.4762V45.472H0.950195V54.222H4.7442V45.472H3.2462V48.44ZM7.5022 52.752H6.7182V49.896H7.5022V52.752ZM7.5022 48.44H6.7182V45.472H5.2342V54.222H9.0142V45.472H7.5022V48.44ZM12.7802 49.07H11.5202V44.31H9.7002V57.204H11.5202V50.596H12.7802V49.07Z" fill="white"/>
<path d="M21.5011 46.886H14.5291V50.484H23.5731V49.084H16.3491V48.188H23.3211V44.604H14.5011V46.004H21.5011V46.886ZM16.3911 53.452H14.5431V56.98H23.6151V55.51H16.3911V53.452ZM13.0731 51.282V52.752H24.7491V51.282H13.0731Z" fill="white"/>
<path d="M32.854 50.022C30.824 49.392 29.956 47.88 29.956 46.326V45.01H28.08V46.172C28.08 47.922 27.212 49.644 25.056 50.358L26.022 51.814C27.492 51.296 28.486 50.302 29.046 49.042C29.592 50.134 30.53 51.002 31.888 51.45L32.854 50.022ZM31.188 55.776C29.536 55.776 28.654 55.44 28.654 54.712C28.654 53.998 29.536 53.662 31.188 53.662C32.826 53.662 33.708 53.998 33.708 54.712C33.708 55.44 32.826 55.776 31.188 55.776ZM31.188 52.234C28.5 52.234 26.82 53.158 26.82 54.712C26.82 56.28 28.5 57.204 31.188 57.204C33.862 57.204 35.542 56.28 35.542 54.712C35.542 53.158 33.862 52.234 31.188 52.234ZM35.402 47.306V44.324H33.554V51.94H35.402V48.832H37.11V47.306H35.402Z" fill="white"/>
<path d="M44.7249 49.224C43.3249 49.518 42.0509 49.602 39.7549 49.616V46.578H43.6609V45.094H37.9209V51.1H38.9989C41.8549 51.1 43.3249 51.03 44.9069 50.68L44.7249 49.224ZM41.0149 53.55H45.7749V55.608H41.0149V53.55ZM39.1949 57.05H47.5809V52.094H39.1949V57.05ZM49.2889 47.208H47.5809V44.296H45.7329V51.534H47.5809V48.706H49.2889V47.208Z" fill="white"/>
<path d="M42 0.752531C42 0.729015 42 0.705498 42 0.685901C42 0.666304 41.9921 0.642787 41.9881 0.62319C41.9842 0.599673 41.9763 0.576157 41.9723 0.55264C41.9684 0.533043 41.9604 0.513446 41.9525 0.493849C41.9446 0.470332 41.9328 0.446815 41.9209 0.423299C41.913 0.407621 41.9011 0.388024 41.8932 0.372346C41.8774 0.34883 41.8615 0.325313 41.8457 0.301796C41.8378 0.293958 41.8339 0.286119 41.8299 0.27828C41.8259 0.270441 41.818 0.266521 41.8141 0.262602C41.7943 0.243005 41.7745 0.223408 41.7547 0.203811C41.7429 0.192052 41.7271 0.180294 41.7152 0.168536C41.6954 0.152858 41.6717 0.13718 41.6519 0.121502C41.6361 0.109744 41.6202 0.101905 41.6044 0.090147C41.5807 0.0783887 41.557 0.0666304 41.5332 0.0587915C41.5134 0.0509526 41.4976 0.0431138 41.4778 0.0352749C41.4739 0.0352749 41.4699 0.0313555 41.466 0.0313555C41.4462 0.0235166 41.4264 0.0235166 41.4066 0.0195972C41.3869 0.0156777 41.3671 0.00783887 41.3473 0.00783887C41.3196 0.00391943 41.2959 0.00391943 41.2682 0C41.2484 0 41.2326 0 41.2128 0C41.1851 0 41.1535 0.00391943 41.1258 0.00783887C41.1099 0.00783887 41.0941 0.00783887 41.0783 0.0117583C41.0348 0.0195972 40.9913 0.0313555 40.9478 0.0470332C40.9398 0.0470332 40.9359 0.0548721 40.928 0.0548721C40.8924 0.0705498 40.8568 0.0862275 40.8212 0.105825H40.8133L6.37808 20.9063C6.10513 21.0709 5.95876 21.3844 6.01019 21.698C6.06162 22.0115 6.29896 22.2663 6.61147 22.3369L18.5263 25.1236L22.2369 35.4787C22.2369 35.4787 22.2448 35.4944 22.2487 35.5022C22.2764 35.5689 22.3081 35.6316 22.3516 35.6904C22.3832 35.7374 22.4228 35.7766 22.4623 35.8119C22.4782 35.8236 22.494 35.8315 22.5059 35.8432C22.5177 35.8511 22.5296 35.8589 22.5415 35.8667C22.6008 35.9059 22.6641 35.9373 22.7274 35.9569C22.7353 35.9569 22.7472 35.9608 22.7551 35.9647C22.8302 35.9843 22.9014 36 22.9766 36H22.9924C22.9924 36 23.0082 36 23.0122 35.9961C23.0794 35.9961 23.1427 35.9804 23.206 35.9608C23.2218 35.9569 23.2416 35.949 23.2575 35.9451C23.3247 35.9177 23.3919 35.8863 23.4513 35.8432C23.4513 35.8432 23.4552 35.8393 23.4592 35.8354C23.4988 35.804 23.5383 35.7688 23.5739 35.7296L29.9427 28.4159L38.6178 30.8381C38.689 30.8577 38.7602 30.8695 38.8314 30.8695C38.9896 30.8695 39.1479 30.8224 39.2824 30.7284C39.4762 30.5951 39.5988 30.3795 39.6186 30.1483L42 0.838759C42 0.838759 42 0.827 42 0.819162C42 0.795645 42 0.772128 42 0.748612V0.752531ZM25.0296 26.0133C24.998 26.0682 24.9703 26.123 24.9505 26.1857L22.9252 32.7194L20.0335 24.6454L36.1731 7.52531L25.0257 26.0172L25.0296 26.0133ZM26.2362 27.3772L28.2655 27.9456L24.8398 31.8768L26.2362 27.3772Z" fill="white"/>
</svg>
