<?xml version="1.0" encoding="utf-8"?>
<!-- Generator: Adobe Illustrator 16.0.0, SVG Export Plug-In . SVG Version: 6.00 Build 0)  -->
<!DOCTYPE svg PUBLIC "-//W3C//DTD SVG 1.1//EN" "http://www.w3.org/Graphics/SVG/1.1/DTD/svg11.dtd">
<svg version="1.1" id="Layer_1" xmlns="http://www.w3.org/2000/svg" xmlns:xlink="http://www.w3.org/1999/xlink" x="0px" y="0px"
	 width="192px" height="45px" viewBox="0 0 192 45" enable-background="new 0 0 192 45" xml:space="preserve">
<g>
	<path fill-rule="evenodd" clip-rule="evenodd" fill="#060606" d="M26.158,8.293c4.424-2.773,9.141-4.083,14.181-4.254
		c1.807-0.062,2.043,0.189,2.642,1.891c0.146,0.416,0.312,0.826,0.43,1.25c0.275,0.978,0.567,1.833,1.895,1.809
		c0.291-0.006,0.814,0.79,0.853,1.248c0.116,1.349,0.042,2.712,0.042,4.069c0,6.652,0.001,13.304,0,19.956
		c0,1.588-0.22,1.696-1.823,1.875c-2.994,0.334-6.016,0.606-8.939,1.277c-1.733,0.397-3.291,1.531-4.95,2.284
		c-0.597,0.271-1.252,0.53-1.894,0.563c-1.591,0.08-3.191,0.076-4.783,0.001c-0.608-0.028-1.315-0.192-1.787-0.548
		c-2.533-1.909-5.476-2.646-8.519-3.068c-1.911-0.266-3.844-0.376-5.769-0.53c-1.113-0.09-1.462-0.391-1.463-1.501
		c-0.009-8.077-0.001-16.154-0.01-24.232c0-0.94,0.372-1.504,1.36-1.506c0.683-0.001,1.029-0.317,1.205-0.973
		C9.039,7.12,9.401,6.376,9.596,5.59c0.279-1.121,1.028-1.634,2.078-1.529c2.217,0.222,4.452,0.429,6.626,0.891
		C21.126,5.551,23.837,6.543,26.158,8.293z M43.888,11.024c-0.824,0-1.533-0.035-2.237,0.005c-3.636,0.206-7.092,1.048-10.31,2.821
		c-0.69,0.38-0.952,0.763-0.948,1.556c0.034,6.822,0.019,13.644,0.021,20.466c0,0.323,0.029,0.646,0.035,0.748
		c2.231-0.674,4.388-1.474,6.614-1.956c2.232-0.483,4.533-0.65,6.825-0.958C43.888,26.161,43.888,18.669,43.888,11.024z
		 M22.016,36.587c0-0.008,0.037-0.174,0.037-0.339c0.003-7.061,0.014-14.121-0.026-21.181c-0.001-0.357-0.356-0.842-0.684-1.046
		c-2.551-1.581-5.38-2.404-8.328-2.795c-1.455-0.193-2.937-0.182-4.386-0.262c0,7.753,0,15.267,0,22.706
		c2.34,0.332,4.616,0.523,6.828,1.005C17.65,35.153,19.781,35.923,22.016,36.587z M28.029,37.954c0-7.655,0-15.26,0-22.868
		c-1.244,0-2.414,0-3.606,0c0,7.645,0,15.227,0,22.868C25.646,37.954,26.814,37.954,28.029,37.954z M11.003,8.686
		c0.523,0.07,1.052,0.161,1.584,0.21c3.139,0.296,6.167,1.067,8.909,2.612c1.727,0.974,3.454,1.363,5.406,1.274
		c1.147-0.052,2.14-0.323,3.184-0.787c2.188-0.972,4.419-1.879,6.704-2.582c1.498-0.461,3.12-0.518,4.693-0.757
		c-0.874-2.753-0.517-2.469-3.031-2.202C38.385,6.463,38.316,6.46,38.25,6.47c-3.33,0.515-6.693,1.115-9.49,3.064
		c-1.823,1.27-3.018,1.441-4.957,0.035c-2.824-2.049-6.331-2.663-9.78-3.108c-2.772-0.357-2.079-0.293-2.999,1.956
		C10.999,8.475,11.012,8.549,11.003,8.686z"/>
	<path fill-rule="evenodd" clip-rule="evenodd" fill="#060606" d="M56.414,21.089c0-2.479,0.023-4.957-0.012-7.434
		c-0.014-0.933,0.26-1.343,1.281-1.321c2.919,0.063,5.84,0,8.758,0.048c2.503,0.042,4.251,1.764,4.237,4.251
		c-0.007,1.161-0.334,2.318-0.475,3.481c-0.032,0.266,0.062,0.574,0.178,0.825c0.994,2.116,0.928,4.318,0.245,6.444
		c-0.502,1.564-1.816,2.49-3.498,2.526c-3.257,0.07-6.518,0.019-9.776,0.043c-0.825,0.007-0.94-0.48-0.94-1.123
		C56.416,26.249,56.414,23.669,56.414,21.089z M63.434,26.364c0.271,0,0.542,0,0.813,0c2.598,0,2.684-0.11,2.613-2.679
		c-0.025-0.938-0.462-1.38-1.354-1.399c-1.116-0.025-2.232-0.018-3.348-0.019c-1.431-0.002-1.431,0.001-1.433,1.421
		C60.723,26.364,60.723,26.364,63.434,26.364z M60.735,15.856c0,0.905-0.029,1.709,0.022,2.509c0.012,0.177,0.303,0.475,0.472,0.479
		c1.421,0.034,2.846,0.067,4.264-0.011c0.888-0.048,1.118-0.718,1.091-1.532c-0.025-0.757-0.217-1.403-1.083-1.431
		C63.954,15.821,62.404,15.856,60.735,15.856z"/>
	<path fill-rule="evenodd" clip-rule="evenodd" fill="#060606" d="M153.017,23.581c0,1.766-0.023,3.531,0.01,5.296
		c0.015,0.781-0.268,1.124-1.07,1.078c-0.744-0.043-1.494-0.031-2.239-0.004c-0.703,0.026-0.978-0.292-0.969-0.975
		c0.017-1.426-0.021-2.852,0.014-4.276c0.016-0.66-0.204-0.899-0.877-0.879c-1.356,0.044-2.715,0.039-4.072,0.002
		c-0.631-0.017-0.831,0.22-0.818,0.828c0.028,1.426-0.013,2.853,0.016,4.277c0.016,0.737-0.271,1.059-1.02,1.024
		c-0.744-0.034-1.494-0.042-2.239,0.001c-0.822,0.05-1.063-0.347-1.058-1.1c0.023-3.292-0.006-6.585,0.045-9.877
		c0.014-0.872,0.17-1.76,0.39-2.608c0.698-2.702,2.37-4.198,5.137-4.455c1.339-0.125,2.723-0.092,4.052,0.104
		c1.934,0.285,3.298,1.511,3.919,3.322c0.443,1.293,0.631,2.698,0.754,4.068C153.113,20.79,153.017,22.19,153.017,23.581z
		 M143.061,19.89c1.896,0,3.728,0,5.552,0c0.254-2.445-0.868-4.294-2.611-4.396C144.18,15.388,143.01,17.084,143.061,19.89z"/>
	<path fill-rule="evenodd" clip-rule="evenodd" fill="#060606" d="M125.769,20.181c0,2.436,0.013,4.872-0.003,7.307
		c-0.019,2.82,0.354,2.392-2.514,2.476c-1.013,0.029-1.277-0.379-1.272-1.318c0.029-4.986,0.012-9.973,0.016-14.959
		c0.002-1.217,0.133-1.195,1.346-1.361c1.791-0.244,2.812,0.438,3.522,2.068c0.657,1.506,1.585,2.896,2.463,4.46
		c0.244-0.328,0.415-0.517,0.539-0.734c0.921-1.622,1.854-3.239,2.738-4.88c0.348-0.645,0.791-0.913,1.536-0.898
		c2.909,0.057,2.568-0.303,2.576,2.539c0.012,4.58,0.004,9.16,0.002,13.739c-0.001,1.28-0.047,1.336-1.311,1.325
		c-2.69-0.023-2.43,0.377-2.438-2.444c-0.007-2.397-0.001-4.794-0.001-7.191c-0.088-0.029-0.177-0.059-0.265-0.087
		c-0.362,0.722-0.758,1.43-1.073,2.171c-0.262,0.62-0.675,0.774-1.323,0.858c-1.949,0.251-3.369-0.219-3.862-2.332
		c-0.063-0.276-0.274-0.519-0.417-0.777C125.941,20.154,125.854,20.167,125.769,20.181z"/>
	<path fill-rule="evenodd" clip-rule="evenodd" fill="#060606" d="M72.919,20.807c0.163-1.264,0.214-2.84,0.592-4.333
		c0.681-2.688,2.728-4.206,5.489-4.295c1.05-0.034,2.102-0.034,3.152-0.002c2.877,0.084,4.942,1.613,5.61,4.412
		c0.724,3.035,0.729,6.138-0.008,9.171c-0.682,2.813-2.73,4.314-5.622,4.386c-0.914,0.022-1.831,0.013-2.746,0.004
		c-3.312-0.032-5.444-1.736-6.07-4.999C73.064,23.828,73.062,22.458,72.919,20.807z M84.062,21.212
		c-0.039-0.01-0.077-0.021-0.116-0.031c-0.063-0.912-0.104-1.826-0.202-2.735c-0.039-0.364-0.174-0.726-0.31-1.071
		c-0.501-1.277-1.152-1.663-2.568-1.73c-1.372-0.064-2.575,0.196-3.022,1.652c-0.784,2.553-0.777,5.15-0.017,7.708
		c0.418,1.404,1.541,1.671,2.901,1.669c1.325-0.002,2.321-0.401,2.672-1.688C83.736,23.759,83.85,22.472,84.062,21.212z"/>
	<path fill-rule="evenodd" clip-rule="evenodd" fill="#060606" d="M89.218,20.797c0.163-1.26,0.215-2.836,0.594-4.33
		c0.683-2.687,2.729-4.201,5.494-4.29c1.049-0.034,2.101-0.034,3.152-0.002c2.874,0.084,4.939,1.617,5.605,4.418
		c0.722,3.034,0.728,6.137-0.01,9.17c-0.685,2.813-2.732,4.312-5.627,4.381c-0.915,0.021-1.83,0.013-2.746,0.004
		c-3.309-0.033-5.44-1.74-6.065-5.004C89.363,23.822,89.361,22.453,89.218,20.797z M100.367,21.164
		c-0.215-1.27-0.334-2.591-0.682-3.848c-0.339-1.225-1.307-1.674-2.589-1.683c-1.338-0.01-2.5,0.235-2.941,1.633
		c-0.801,2.551-0.782,5.148-0.041,7.708c0.441,1.527,1.676,1.753,3.085,1.682c1.44-0.073,2.116-0.371,2.521-1.736
		C100.071,23.735,100.153,22.471,100.367,21.164z"/>
	<path fill-rule="evenodd" clip-rule="evenodd" fill="#060606" d="M176.101,22.583c0,1.363,0,2.568,0,3.905c0.425,0,0.787,0,1.149,0
		c2.207,0,4.412,0.008,6.618-0.005c0.656-0.003,1.104,0.146,1.186,0.92c0.253,2.374,0.118,2.543-2.254,2.543
		c-3.292,0-6.584-0.025-9.876,0.016c-0.898,0.012-1.171-0.303-1.166-1.182c0.032-5.057,0.035-10.114-0.001-15.17
		c-0.007-1.002,0.376-1.283,1.324-1.272c3.496,0.04,6.992,0.043,10.487-0.001c0.982-0.012,1.31,0.333,1.3,1.3
		c-0.022,2.213,0.015,2.213-2.228,2.213c-2.136,0-4.271,0-6.504,0c0,1.078,0,2.101,0,3.251c2.01,0,4.001,0,5.992,0
		c1.858,0,1.858,0,1.856,1.905c0,0.136-0.013,0.272,0.001,0.407c0.095,0.883-0.29,1.202-1.177,1.184
		C180.608,22.553,178.405,22.583,176.101,22.583z"/>
	<path fill-rule="evenodd" clip-rule="evenodd" fill="#060606" d="M118.749,12.702c-2.057,2.442-4.113,4.885-6.264,7.439
		c2.656,3.163,5.313,6.323,7.968,9.484c-0.06,0.089-0.12,0.179-0.181,0.268c-1.575,0-3.152,0.055-4.721-0.04
		c-0.384-0.023-0.799-0.488-1.093-0.84c-1.066-1.273-2.087-2.587-3.128-3.883c-0.227-0.281-0.468-0.55-0.956-0.762
		c0,1.333,0.002,2.665,0,3.998c-0.002,1.578-0.003,1.578-1.585,1.58c-2.716,0.004-2.716,0.004-2.716-2.663
		c0-4.547,0.021-9.095-0.017-13.642c-0.008-0.964,0.29-1.387,1.279-1.296c0.572,0.053,1.155,0.049,1.729,0.001
		c0.961-0.081,1.376,0.294,1.321,1.28c-0.055,0.963-0.012,1.933-0.012,2.899c0.084,0.028,0.167,0.057,0.25,0.086
		c0.89-1.082,1.813-2.138,2.661-3.254c0.543-0.717,1.187-1.046,2.083-1.013c1.063,0.04,2.132,0.01,3.198,0.01
		C118.627,12.47,118.688,12.586,118.749,12.702z"/>
	<path fill-rule="evenodd" clip-rule="evenodd" fill="#060606" d="M163.663,16.064c0,0.528,0,0.926,0,1.325
		c0,3.7,0.002,7.401-0.001,11.102c0,1.445-0.012,1.452-1.498,1.455c-0.578,0.001-1.159-0.041-1.731,0.01
		c-0.905,0.079-1.177-0.317-1.17-1.187c0.033-3.769,0.014-7.538,0.014-11.306c0-0.406,0-0.811,0-1.4
		c-1.298,0-2.536,0.003-3.775-0.001c-1.252-0.004-1.317-0.067-1.316-1.34c0.003-2.577-0.251-2.367,2.34-2.368
		c3.53-0.001,7.063-0.002,10.593,0.001c1.291,0.001,1.354,0.057,1.35,1.297c-0.012,2.735,0.294,2.389-2.367,2.41
		C165.329,16.069,164.559,16.064,163.663,16.064z"/>
</g>
</svg>
