<svg id="icon_blog" xmlns="http://www.w3.org/2000/svg" width="25.902" height="21.295" viewBox="0 0 25.902 21.295">
  <path id="패스_14173" data-name="패스 14173" d="M600.159,186.057a1,1,0,0,0-.742.314,1.09,1.09,0,0,0,0,1.52,1,1,0,0,0,.742.314,1.074,1.074,0,0,0,0-2.148Z" transform="translate(-594.679 -178.176)" fill="#fff"/>
  <path id="패스_14174" data-name="패스 14174" d="M656.285,186a1,1,0,0,0-.741.314,1.089,1.089,0,0,0,0,1.52,1,1,0,0,0,.741.314,1.074,1.074,0,0,0,0-2.147Z" transform="translate(-641.842 -178.128)" fill="#fff"/>
  <path id="패스_14175" data-name="패스 14175" d="M693.717,186.057a1,1,0,0,0-.742.314,1.091,1.091,0,0,0,0,1.52,1.006,1.006,0,0,0,.742.314,1.074,1.074,0,0,0,0-2.148Z" transform="translate(-673.297 -178.176)" fill="#fff"/>
  <path id="패스_14176" data-name="패스 14176" d="M594.448,136.7H574.194a2.832,2.832,0,0,0-2.824,2.824v11.455a2.832,2.832,0,0,0,2.824,2.824h7.953s1.536,4.193,2.1,4.193,2.222-4.193,2.222-4.193h7.984a2.833,2.833,0,0,0,2.824-2.824V139.527A2.833,2.833,0,0,0,594.448,136.7ZM578.9,147.277a2.479,2.479,0,0,1-3.063.212h-.019v.322H574.3v-6.632h1.521v2.535h.019a2.5,2.5,0,0,1,1.6-.492,2.011,2.011,0,0,1,1.468.723,2.658,2.658,0,0,1,.592,1.7A2.177,2.177,0,0,1,578.9,147.277Zm3.263.583h-1.551v-4.1a.987.987,0,0,0-.748-1.072v-1.642a2.614,2.614,0,0,1,2.3,2.766Zm6.085-1.258a2.407,2.407,0,0,1-.57.8,2.59,2.59,0,0,1-.849.53,2.81,2.81,0,0,1-1.014.185,2.736,2.736,0,0,1-1-.185,2.659,2.659,0,0,1-.85-.53,2.519,2.519,0,0,1-.582-.8,2.316,2.316,0,0,1,0-1.871,2.531,2.531,0,0,1,.582-.8,2.663,2.663,0,0,1,.85-.53,2.726,2.726,0,0,1,1-.184,2.8,2.8,0,0,1,1.014.184,2.594,2.594,0,0,1,.849.53,2.407,2.407,0,0,1,.57.8,2.391,2.391,0,0,1,0,1.889Zm6.1.659a3.02,3.02,0,0,1-.74,2.368,2.64,2.64,0,0,1-2.239.522v-1.2a1.287,1.287,0,0,0,1.468-1.146v-.309h-.018a1.721,1.721,0,0,1-1.527.653,1.96,1.96,0,0,1-1.532-.66,2.567,2.567,0,0,1-.55-1.726,2.858,2.858,0,0,1,.613-1.927,2.1,2.1,0,0,1,1.656-.7,1.792,1.792,0,0,1,1.34.479h.018v-.363h1.511Z" transform="translate(-571.37 -136.703)" fill="#fff"/>
</svg>
