<svg xmlns="http://www.w3.org/2000/svg" width="25.343" height="25.343" viewBox="0 0 25.343 25.343">
  <path id="icon_instagram" d="M12.672,0C9.229,0,8.8.016,7.448.076A9.344,9.344,0,0,0,4.372.665,6.205,6.205,0,0,0,2.127,2.127,6.183,6.183,0,0,0,.665,4.372,9.316,9.316,0,0,0,.076,7.448C.013,8.8,0,9.229,0,12.672S.016,16.544.076,17.9a9.35,9.35,0,0,0,.589,3.076,6.214,6.214,0,0,0,1.461,2.245,6.2,6.2,0,0,0,2.245,1.461,9.355,9.355,0,0,0,3.076.589c1.352.063,1.781.076,5.224.076s3.872-.016,5.224-.076a9.377,9.377,0,0,0,3.076-.589,6.476,6.476,0,0,0,3.706-3.706,9.349,9.349,0,0,0,.589-3.076c.063-1.352.076-1.781.076-5.224s-.016-3.872-.076-5.224a9.371,9.371,0,0,0-.589-3.076,6.219,6.219,0,0,0-1.461-2.245A6.174,6.174,0,0,0,20.972.665,9.322,9.322,0,0,0,17.9.076C16.544.013,16.114,0,12.672,0Zm0,2.281c3.382,0,3.786.017,5.121.075a6.981,6.981,0,0,1,2.352.438A4.17,4.17,0,0,1,22.55,5.2a7,7,0,0,1,.436,2.352c.06,1.337.074,1.738.074,5.121s-.016,3.786-.078,5.121a7.131,7.131,0,0,1-.445,2.352,4.023,4.023,0,0,1-.949,1.459,3.953,3.953,0,0,1-1.457.946,7.048,7.048,0,0,1-2.36.436c-1.345.06-1.741.074-5.131.074s-3.787-.016-5.131-.078a7.185,7.185,0,0,1-2.361-.445,3.924,3.924,0,0,1-1.456-.949,3.848,3.848,0,0,1-.95-1.457,7.191,7.191,0,0,1-.444-2.36c-.048-1.331-.064-1.741-.064-5.115S2.25,8.869,2.3,7.523a7.183,7.183,0,0,1,.444-2.359,3.756,3.756,0,0,1,.95-1.458,3.748,3.748,0,0,1,1.456-.948,7.013,7.013,0,0,1,2.345-.445c1.346-.048,1.742-.063,5.131-.063l.048.032Zm0,3.884a6.507,6.507,0,1,0,6.507,6.507A6.506,6.506,0,0,0,12.672,6.165Zm0,10.731A4.224,4.224,0,1,1,16.9,12.672,4.223,4.223,0,0,1,12.672,16.9ZM20.957,5.908a1.521,1.521,0,1,1-1.521-1.52A1.522,1.522,0,0,1,20.957,5.908Z" fill="#fff"/>
</svg>
