<?xml version="1.0" encoding="UTF-8"?>
<svg id="_레이어_2" data-name="레이어 2" xmlns="http://www.w3.org/2000/svg" viewBox="0 0 737.21 172.36">
  <defs>
    <style>
      .cls-1 {
        fill: #fff;
      }
    </style>
  </defs>
  <g id="_레이어_1-2" data-name="레이어 1">
    <g>
      <g>
        <g>
          <path class="cls-1" d="M253.4,150.72c1.58,0,3.01,.25,4.27,.76,1.26,.51,2.33,1.22,3.21,2.14,.87,.92,1.55,2.04,2.02,3.34,.47,1.31,.7,2.77,.7,4.39s-.23,3.09-.7,4.39c-.47,1.31-1.14,2.43-2.02,3.36-.88,.93-1.94,1.64-3.21,2.14-1.26,.5-2.69,.75-4.27,.75h-6.99v-21.28h6.99Zm-3.95,2.71v15.89h3.91c1.09,0,2.07-.17,2.95-.51,.88-.34,1.63-.85,2.24-1.52,.62-.67,1.09-1.5,1.43-2.49s.5-2.13,.5-3.44-.17-2.43-.5-3.41-.81-1.81-1.43-2.49c-.62-.67-1.37-1.18-2.24-1.52-.88-.34-1.86-.51-2.95-.51h-3.91Z"/>
          <path class="cls-1" d="M281.28,150.72h12.63v2.65h-9.59v6.47h8.82v2.65h-8.82v6.88h9.84v2.62h-12.88v-21.28Z"/>
          <path class="cls-1" d="M313,166.86c.7,.79,1.53,1.46,2.49,2.02,.96,.55,1.97,.83,3.04,.83,1.34,0,2.44-.31,3.29-.93,.85-.62,1.27-1.44,1.27-2.47,0-.92-.38-1.72-1.15-2.4-.76-.68-2.04-1.22-3.83-1.6-2.14-.46-3.76-1.21-4.88-2.24-1.11-1.03-1.67-2.32-1.67-3.87,0-.85,.17-1.63,.5-2.35,.33-.72,.8-1.34,1.4-1.85,.6-.52,1.31-.92,2.14-1.2s1.74-.43,2.74-.43c1.42,0,2.69,.24,3.81,.73,1.12,.49,2.1,1.15,2.93,1.98l-1.77,2.18c-.68-.63-1.42-1.15-2.21-1.58-.79-.42-1.66-.64-2.6-.64-1.14,0-2.06,.27-2.76,.82-.7,.54-1.05,1.25-1.05,2.11,0,1.82,1.58,3.09,4.73,3.81,2.38,.53,4.1,1.34,5.17,2.43,1.07,1.09,1.6,2.43,1.6,4.03,0,.88-.18,1.7-.53,2.46-.35,.75-.85,1.4-1.51,1.93-.65,.54-1.45,.95-2.38,1.26-.93,.3-1.98,.46-3.14,.46-1.47,0-2.87-.31-4.2-.93s-2.43-1.44-3.32-2.47l1.88-2.1Z"/>
          <path class="cls-1" d="M347.46,150.72v21.28h-3.04v-21.28h3.04Z"/>
          <path class="cls-1" d="M380.9,163.29h-5.66v-2.6h8.7v8.95c-.96,.83-2.08,1.49-3.37,1.98s-2.65,.73-4.08,.73c-1.54,0-2.97-.28-4.26-.84s-2.42-1.34-3.37-2.32-1.68-2.15-2.21-3.5c-.52-1.34-.79-2.79-.79-4.34s.26-2.99,.79-4.33c.53-1.34,1.26-2.5,2.21-3.48,.95-.99,2.07-1.76,3.37-2.32,1.3-.56,2.72-.84,4.27-.84,1.34,0,2.61,.2,3.79,.61,1.18,.41,2.27,1,3.26,1.77l-1.55,2.32c-.81-.59-1.66-1.07-2.54-1.45-.88-.38-1.87-.57-2.96-.57s-2.12,.22-3.04,.65c-.92,.43-1.71,1.02-2.38,1.77-.66,.75-1.18,1.63-1.55,2.64-.37,1.01-.55,2.1-.55,3.26s.18,2.25,.55,3.26c.37,1.01,.88,1.89,1.55,2.64,.66,.75,1.46,1.34,2.38,1.77,.92,.43,1.93,.65,3.04,.65,.77,0,1.55-.12,2.34-.36,.78-.24,1.47-.57,2.06-.99v-5.06Z"/>
          <path class="cls-1" d="M402.43,150.72h2.98l10.28,16.08v-16.08h2.96v21.28h-2.98l-10.28-16.06v16.06h-2.96v-21.28Z"/>
          <path class="cls-1" d="M450.48,169.87c-.83,.77-1.79,1.38-2.87,1.82-1.09,.44-2.29,.66-3.62,.66-1.05,0-2.02-.16-2.9-.47-.88-.31-1.64-.74-2.28-1.27-.64-.53-1.13-1.17-1.49-1.91-.36-.74-.54-1.53-.54-2.38,0-1.31,.36-2.46,1.08-3.45s1.69-1.88,2.9-2.65c-.87-.92-1.48-1.74-1.85-2.45-.37-.71-.55-1.47-.55-2.28,0-.74,.15-1.41,.46-2.03s.72-1.16,1.24-1.62c.53-.46,1.14-.82,1.84-1.08,.7-.26,1.46-.39,2.27-.39,1.47,0,2.72,.34,3.74,1.01,1.02,.67,1.75,1.58,2.17,2.72l-2.65,1.05c-.26-.72-.67-1.29-1.24-1.71-.57-.42-1.24-.63-2.02-.63-.85,0-1.54,.26-2.07,.79-.53,.53-.8,1.15-.8,1.87,0,.31,.06,.62,.17,.93,.11,.3,.28,.63,.51,.97,.23,.34,.53,.71,.9,1.1,.37,.4,.82,.85,1.35,1.37l5.94,5.83c.37-.7,.67-1.45,.9-2.24,.23-.79,.39-1.61,.48-2.46l2.82,.42c-.11,1.16-.34,2.28-.69,3.36-.35,1.08-.82,2.08-1.41,3l4.37,4.26h-3.95l-2.18-2.13Zm-6.49-.05c.88,0,1.7-.17,2.45-.51s1.43-.82,2.06-1.42l-5.89-5.8c-.92,.59-1.63,1.23-2.13,1.91-.5,.68-.75,1.4-.75,2.16,0,.52,.11,1,.32,1.44,.21,.44,.51,.83,.88,1.16,.38,.33,.82,.59,1.34,.79,.52,.19,1.09,.29,1.71,.29Z"/>
          <path class="cls-1" d="M473.53,150.72h12.32v2.65h-9.29v6.66h8.51v2.65h-8.51v9.31h-3.04v-21.28Z"/>
          <path class="cls-1" d="M518.74,164.65c0,1.16-.2,2.22-.59,3.16-.4,.95-.94,1.75-1.64,2.42-.7,.66-1.52,1.18-2.46,1.55-.94,.37-1.95,.55-3.03,.55s-2.1-.18-3.05-.55c-.95-.37-1.77-.88-2.47-1.55-.7-.66-1.25-1.47-1.66-2.42-.4-.95-.61-2-.61-3.16v-13.93h3.09v14.18c0,.72,.12,1.37,.36,1.96,.24,.59,.57,1.09,.98,1.51,.41,.41,.91,.73,1.49,.95,.58,.22,1.2,.33,1.87,.33s1.28-.11,1.85-.33c.57-.22,1.06-.54,1.48-.95,.41-.42,.74-.92,.98-1.51,.24-.59,.36-1.24,.36-1.96v-14.18h3.04v13.93Z"/>
          <path class="cls-1" d="M540.62,172h-3.04v-21.28h6.88c1.12,0,2.14,.15,3.05,.44,.91,.29,1.69,.72,2.32,1.27,.64,.55,1.12,1.23,1.46,2.02,.34,.79,.51,1.69,.51,2.68,0,1.49-.36,2.74-1.09,3.74-.73,1-1.75,1.73-3.05,2.17l4.56,8.95h-3.4c-.7-1.42-1.4-2.83-2.08-4.23-.68-1.4-1.38-2.82-2.08-4.26h-4.05v8.48Zm8.07-14.87c0-1.23-.38-2.17-1.15-2.82-.77-.64-1.85-.97-3.26-.97h-3.66v7.54h3.66c1.41,0,2.49-.32,3.26-.95,.77-.64,1.15-1.57,1.15-2.8Z"/>
          <path class="cls-1" d="M569.78,150.72h2.98l10.28,16.08v-16.08h2.96v21.28h-2.98l-10.28-16.06v16.06h-2.96v-21.28Z"/>
          <path class="cls-1" d="M608.25,150.72v21.28h-3.04v-21.28h3.04Z"/>
          <path class="cls-1" d="M631.71,153.4h-5.89v-2.68h14.84v2.68h-5.86v18.6h-3.09v-18.6Z"/>
          <path class="cls-1" d="M673.3,164.65c0,1.16-.2,2.22-.59,3.16-.4,.95-.94,1.75-1.64,2.42-.7,.66-1.52,1.18-2.46,1.55-.94,.37-1.95,.55-3.03,.55s-2.1-.18-3.05-.55c-.95-.37-1.77-.88-2.47-1.55-.7-.66-1.25-1.47-1.66-2.42-.4-.95-.61-2-.61-3.16v-13.93h3.09v14.18c0,.72,.12,1.37,.36,1.96,.24,.59,.57,1.09,.98,1.51,.41,.41,.91,.73,1.49,.95,.58,.22,1.2,.33,1.87,.33s1.28-.11,1.85-.33c.57-.22,1.06-.54,1.48-.95,.41-.42,.74-.92,.98-1.51,.24-.59,.36-1.24,.36-1.96v-14.18h3.04v13.93Z"/>
          <path class="cls-1" d="M695.18,172h-3.04v-21.28h6.88c1.12,0,2.14,.15,3.05,.44,.91,.29,1.69,.72,2.32,1.27,.64,.55,1.12,1.23,1.46,2.02,.34,.79,.51,1.69,.51,2.68,0,1.49-.36,2.74-1.09,3.74-.73,1-1.75,1.73-3.05,2.17l4.56,8.95h-3.4c-.7-1.42-1.4-2.83-2.08-4.23-.68-1.4-1.38-2.82-2.08-4.26h-4.05v8.48Zm8.07-14.87c0-1.23-.38-2.17-1.15-2.82-.77-.64-1.85-.97-3.26-.97h-3.66v7.54h3.66c1.41,0,2.49-.32,3.26-.95,.77-.64,1.15-1.57,1.15-2.8Z"/>
          <path class="cls-1" d="M724.34,150.72h12.63v2.65h-9.59v6.47h8.82v2.65h-8.82v6.88h9.84v2.62h-12.88v-21.28Z"/>
        </g>
        <g>
          <path class="cls-1" d="M347.05,11.81V105.77h-11v-37.05l-15.8,.11c-2.21,2.24-4.77,3.98-7.69,5.21-2.92,1.23-6.16,1.84-9.72,1.84s-6.96-.68-9.98-2.03c-3.03-1.35-5.62-3.24-7.79-5.66-2.17-2.42-3.84-5.32-5.02-8.7-1.17-3.38-1.76-7.06-1.76-11.05s.59-7.53,1.76-10.84c1.17-3.31,2.85-6.19,5.02-8.65,2.17-2.46,4.77-4.38,7.79-5.77,3.02-1.39,6.35-2.08,9.98-2.08s6.69,.62,9.61,1.87c2.92,1.25,5.45,2.97,7.58,5.18h16.02V11.81h11Zm-30.75,36.68c0-2.21-.29-4.37-.85-6.48-.57-2.11-1.42-3.98-2.56-5.62-1.14-1.64-2.55-2.96-4.22-3.96-1.67-1-3.61-1.5-5.82-1.5s-4.04,.5-5.71,1.5c-1.67,1-3.06,2.32-4.16,3.96-1.1,1.64-1.94,3.52-2.51,5.62-.57,2.11-.85,4.27-.85,6.48s.28,4.48,.85,6.59c.57,2.11,1.4,3.96,2.51,5.57,1.1,1.61,2.49,2.91,4.16,3.91,1.67,1,3.58,1.5,5.71,1.5s4.15-.5,5.82-1.5c1.67-1,3.08-2.3,4.22-3.91,1.14-1.61,1.99-3.46,2.56-5.57,.57-2.11,.85-4.3,.85-6.59Zm11.32-.05c0,3.77-.53,7.26-1.6,10.46h10.04v-20.93h-10.14c.57,1.64,1,3.33,1.28,5.07,.28,1.75,.43,3.54,.43,5.39Zm38.65-37.8V108.97h-11.32V10.63h11.32Z"/>
          <path class="cls-1" d="M405.77,11.81h11.75v13.03c0,2.35,.41,4.54,1.23,6.57,.82,2.03,2.19,4.11,4.11,6.25s4.43,4.47,7.53,6.99c3.1,2.53,6.92,5.43,11.48,8.7l-6.62,8.11c-5.7-3.91-10.43-7.54-14.21-10.89-3.78-3.34-6.82-6.55-9.12-9.61-2.08,3.2-5.02,6.6-8.8,10.2-3.78,3.6-8.73,7.6-14.86,12.01l-7.05-8.44c4.7-3.42,8.61-6.46,11.75-9.13,3.13-2.67,5.66-5.18,7.58-7.53,1.92-2.35,3.27-4.61,4.06-6.78,.78-2.17,1.17-4.43,1.17-6.78V11.81Zm57.34,78.27c0,3.28-.66,6.35-1.98,9.24-1.32,2.88-3.16,5.41-5.51,7.58-2.35,2.17-5.19,3.88-8.51,5.12-3.32,1.24-6.97,1.87-10.97,1.87s-7.76-.62-11.07-1.87c-3.32-1.25-6.15-2.94-8.51-5.07-2.35-2.13-4.17-4.64-5.46-7.53s-1.93-6-1.93-9.34,.66-6.23,1.98-9.08c1.32-2.85,3.16-5.37,5.51-7.58,2.35-2.21,5.19-3.95,8.51-5.23,3.32-1.28,6.97-1.92,10.97-1.92s7.65,.64,10.97,1.92c3.32,1.28,6.15,3.03,8.51,5.23,2.35,2.21,4.19,4.74,5.51,7.58,1.32,2.85,1.98,5.87,1.98,9.08Zm-11.75,0c0-1.71-.36-3.38-1.07-5.02-.71-1.64-1.73-3.13-3.04-4.48-1.32-1.35-2.92-2.44-4.8-3.26-1.89-.82-4-1.23-6.35-1.23s-4.57,.41-6.46,1.23c-1.89,.82-3.47,1.91-4.75,3.26-1.28,1.35-2.26,2.85-2.94,4.48-.68,1.64-1.01,3.31-1.01,5.02s.34,3.51,1.01,5.18c.68,1.67,1.65,3.17,2.94,4.48,1.28,1.32,2.86,2.37,4.75,3.15,1.89,.78,4.04,1.17,6.46,1.17s4.47-.39,6.35-1.17c1.89-.78,3.49-1.83,4.8-3.15,1.32-1.32,2.33-2.81,3.04-4.48,.71-1.67,1.07-3.4,1.07-5.18Zm13.67-79.44v55.42h-11.75v-29.47h-18.79v-9.82h18.79V10.63h11.75Z"/>
          <path class="cls-1" d="M516.29,17.04c6.12,0,11.62,.98,16.5,2.94,4.87,1.96,9,4.72,12.39,8.27,3.38,3.56,5.98,7.87,7.79,12.92,1.82,5.06,2.72,10.71,2.72,16.98s-.91,11.92-2.72,16.98c-1.82,5.05-4.41,9.38-7.79,12.97-3.38,3.6-7.51,6.35-12.39,8.28-4.88,1.92-10.38,2.88-16.5,2.88h-27.01V17.04h27.01Zm-15.27,10.46v61.4h15.09c4.21,0,8.01-.66,11.4-1.98,3.39-1.32,6.28-3.27,8.67-5.87,2.39-2.6,4.23-5.8,5.51-9.61,1.28-3.81,1.93-8.24,1.93-13.29s-.64-9.38-1.93-13.19c-1.28-3.81-3.12-7.01-5.51-9.61-2.39-2.6-5.28-4.55-8.67-5.87-3.39-1.32-7.19-1.98-11.4-1.98h-15.09Z"/>
          <path class="cls-1" d="M622.1,91.04c-3.2,2.99-6.91,5.34-11.1,7.05-4.2,1.71-8.86,2.56-13.99,2.56-4.06,0-7.79-.61-11.21-1.81-3.42-1.21-6.35-2.85-8.81-4.91-2.46-2.06-4.38-4.52-5.77-7.37-1.39-2.85-2.08-5.91-2.08-9.18,0-5.05,1.39-9.5,4.16-13.35,2.78-3.84,6.51-7.26,11.21-10.25-3.35-3.56-5.73-6.71-7.15-9.45-1.42-2.74-2.14-5.68-2.14-8.81,0-2.85,.59-5.46,1.76-7.85,1.17-2.38,2.78-4.47,4.8-6.25,2.03-1.78,4.39-3.17,7.1-4.17,2.7-1,5.62-1.49,8.76-1.49,5.69,0,10.52,1.3,14.47,3.9,3.95,2.6,6.74,6.1,8.38,10.52l-10.25,4.06c-1-2.78-2.6-4.98-4.8-6.62-2.21-1.64-4.8-2.46-7.79-2.46-3.27,0-5.94,1.01-8.01,3.04-2.07,2.03-3.1,4.43-3.1,7.21,0,1.21,.21,2.4,.64,3.58,.43,1.17,1.08,2.42,1.98,3.74,.89,1.32,2.05,2.74,3.47,4.27,1.42,1.53,3.17,3.29,5.23,5.29l22.96,22.53c1.42-2.71,2.58-5.59,3.47-8.65,.89-3.06,1.51-6.23,1.87-9.5l10.89,1.6c-.43,4.48-1.32,8.81-2.67,12.97-1.35,4.16-3.17,8.03-5.45,11.58l16.87,16.44h-15.27l-8.44-8.22Zm-25.09-.21c3.42,0,6.57-.66,9.45-1.97,2.88-1.32,5.53-3.15,7.95-5.5l-22.74-22.42c-3.56,2.28-6.3,4.73-8.22,7.37-1.92,2.63-2.88,5.41-2.88,8.33,0,1.99,.41,3.84,1.23,5.55,.82,1.71,1.96,3.2,3.42,4.48,1.46,1.28,3.18,2.3,5.18,3.04,1.99,.75,4.2,1.12,6.62,1.12Z"/>
          <path class="cls-1" d="M658.83,17.04h47.62v10.25h-35.88v25.73h32.89v10.25h-32.89v35.98h-11.75V17.04Z"/>
        </g>
      </g>
      <g>
        <path class="cls-1" d="M9.11,160.37l5.76-9.64h3.32l-7.57,12.6v8.68h-3.04v-8.68l-7.57-12.6H3.32l5.79,9.64Z"/>
        <path class="cls-1" d="M35.21,150.72h12.63v2.65h-9.59v6.47h8.82v2.65h-8.82v6.88h9.84v2.62h-12.88v-21.28Z"/>
        <path class="cls-1" d="M66.93,166.86c.7,.79,1.53,1.46,2.49,2.02,.96,.55,1.97,.83,3.04,.83,1.34,0,2.44-.31,3.29-.93,.85-.62,1.27-1.44,1.27-2.47,0-.92-.38-1.72-1.15-2.4-.76-.68-2.04-1.22-3.83-1.6-2.14-.46-3.76-1.21-4.88-2.24-1.11-1.03-1.67-2.32-1.67-3.87,0-.85,.17-1.63,.5-2.35,.33-.72,.8-1.34,1.4-1.85,.6-.52,1.31-.92,2.14-1.2s1.74-.43,2.74-.43c1.42,0,2.69,.24,3.81,.73,1.12,.49,2.1,1.15,2.93,1.98l-1.77,2.18c-.68-.63-1.42-1.15-2.21-1.58-.79-.42-1.66-.64-2.6-.64-1.14,0-2.06,.27-2.76,.82-.7,.54-1.05,1.25-1.05,2.11,0,1.82,1.58,3.09,4.73,3.81,2.38,.53,4.1,1.34,5.17,2.43,1.07,1.09,1.6,2.43,1.6,4.03,0,.88-.18,1.7-.53,2.46-.35,.75-.85,1.4-1.51,1.93-.65,.54-1.45,.95-2.38,1.26-.93,.3-1.98,.46-3.14,.46-1.47,0-2.87-.31-4.2-.93s-2.43-1.44-3.32-2.47l1.88-2.1Z"/>
        <path class="cls-1" d="M113.44,164.65c0,1.16-.2,2.22-.59,3.16-.4,.95-.94,1.75-1.64,2.42-.7,.66-1.52,1.18-2.46,1.55-.94,.37-1.95,.55-3.03,.55s-2.1-.18-3.05-.55c-.95-.37-1.77-.88-2.47-1.55-.7-.66-1.25-1.47-1.66-2.42-.4-.95-.61-2-.61-3.16v-13.93h3.09v14.18c0,.72,.12,1.37,.36,1.96,.24,.59,.57,1.09,.98,1.51,.41,.41,.91,.73,1.49,.95,.58,.22,1.2,.33,1.87,.33s1.28-.11,1.85-.33c.57-.22,1.06-.54,1.48-.95,.41-.42,.74-.92,.98-1.51,.24-.59,.36-1.24,.36-1.96v-14.18h3.04v13.93Z"/>
        <path class="cls-1" d="M132.28,150.72h2.98l10.28,16.08v-16.08h2.96v21.28h-2.98l-10.28-16.06v16.06h-2.96v-21.28Z"/>
        <path class="cls-1" d="M181.5,163.29h-5.66v-2.6h8.7v8.95c-.96,.83-2.08,1.49-3.37,1.98s-2.65,.73-4.08,.73c-1.54,0-2.97-.28-4.26-.84s-2.42-1.34-3.37-2.32-1.68-2.15-2.21-3.5c-.52-1.34-.79-2.79-.79-4.34s.26-2.99,.79-4.33c.53-1.34,1.26-2.5,2.21-3.48,.95-.99,2.07-1.76,3.37-2.32,1.3-.56,2.72-.84,4.27-.84,1.34,0,2.61,.2,3.79,.61,1.18,.41,2.27,1,3.26,1.77l-1.55,2.32c-.81-.59-1.66-1.07-2.54-1.45-.88-.38-1.87-.57-2.96-.57s-2.12,.22-3.04,.65c-.92,.43-1.71,1.02-2.38,1.77-.66,.75-1.18,1.63-1.55,2.64-.37,1.01-.55,2.1-.55,3.26s.18,2.25,.55,3.26c.37,1.01,.88,1.89,1.55,2.64,.66,.75,1.46,1.34,2.38,1.77,.92,.43,1.93,.65,3.04,.65,.77,0,1.55-.12,2.34-.36,.78-.24,1.47-.57,2.06-.99v-5.06Z"/>
      </g>
      <path class="cls-1" d="M175.56,85.8c-.73-3.12-1.92-6.13-3.6-8.88-6.58-10.76-18.89-16.27-29.98-22.26-7.77-4.2-15.27-8.91-22.46-14.04-4.44-3.16-9.18-7.26-9.29-12.71-2.97,4.44-5.94,8.89-8.91,13.33-.3,.45-.6,.91-.7,1.44-.13,.65,.08,1.32,.31,1.94,2.3,6.17,7.59,10.69,12.96,14.49,11.95,8.45,25.28,14.74,37.46,22.85,3.69,2.45,7.37,5.19,9.59,9.03,3.51,6.1,2.5,14.22-1.72,19.86-4.21,5.64-11.18,8.85-18.19,9.4-7.02,.55-14.06-1.37-20.36-4.5-9.69-4.8-16.7-12.65-25.65-18.39-5.18-3.32-10.75-6.22-16.56-8.28-3.84-1.36-7.5-2.35-11-3.03,0,0,30.85-51.48,30.86-51.41,4.43-7.08,10.87-16.18,17.5-21.51,.15-.15,.28-.3,.44-.45,4.16-3.88,9.64-5.83,16.45-5.83,2.64,.14,5.03,.56,7.18,1.25,2.15,.7,4.4,1.74,6.77,3.12,2.77,1.66,5.24,3.51,7.39,5.52,2.15,2.01,3.78,4.06,4.89,6.14,1.66,2.78,2.98,5.69,3.96,8.74,.97,3.05,1.66,6.52,2.08,10.41h3.33V0h-3.33c-.56,2.91-1.42,4.82-2.6,5.72-1.18,.9-2.81,1.35-4.89,1.35-1.11,0-2.39-.35-3.85-1.04-1.46-.69-2.88-1.38-4.27-2.08-2.78-1.11-5.69-2.01-8.74-2.71-3.06-.69-5.83-1.04-8.33-1.04-4.16,0-8.4,.76-12.7,2.29-4.3,1.53-7.2,3.97-9.98,6.47-3.05,2.64-8.83,10.65-9.03,11.09l-23.55,39.3L53.65,23.09c-1.41-2.17-2.62-4.27-3.63-6.31-1.02-2.04-1.53-3.44-1.53-4.21,0-2.55,1.18-4.4,3.54-5.55,2.36-1.15,5.07-1.72,8.13-1.72h1.15V2.05H15.97v3.25c.89,0,1.72,.07,2.49,.19,.77,.13,1.34,.32,1.72,.58,4.46,2.04,7.33,3.76,8.61,5.16,1.27,1.4,3.63,4.72,7.08,9.95l30.8,47.05,2.65,4.04-7.74,12.91c-18.9-1.91-32.51,5.26-41.74,11.53-8.55,5.82-12.95,14.96-10.46,21.74,.89,2.43,4.09,7.99,14.68,6.84,21.16-2.24,34.36-24.12,34.91-25.04l5.47-9.12c3.85,.61,7.92,1.63,12.23,3.16,6.4,2.26,12.64,5.64,18.15,9.57,8.3,5.93,15.04,13.43,24.29,18.16,17.99,9.21,42.96,5.8,53.34-13.09,3.83-6.98,4.92-15.41,3.13-23.13Zm-121.34,11.64c-.12,.2-12.37,20.44-30.76,22.39-2.77,.29-7.64,.27-8.93-3.26-1.35-3.69,1.47-10.58,8.39-15.29,7.5-5.1,18.14-10.86,32.53-10.86,.96,0,1.93,.03,2.93,.08l-4.16,6.95Z"/>
    </g>
  </g>
</svg>