<svg xmlns="http://www.w3.org/2000/svg" width="20" height="22" viewBox="0 0 20 22">
  <g id="icon_home" transform="translate(-3 -1.5)">
    <path id="패스_14283" data-name="패스 14283" d="M13,1.5a1,1,0,0,1,.614.211l9,7A1,1,0,0,1,23,9.5v11a3,3,0,0,1-3,3H6a3,3,0,0,1-3-3V9.5a1,1,0,0,1,.386-.789l9-7A1,1,0,0,1,13,1.5Zm8,8.489L13,3.767,5,9.989V20.5a1,1,0,0,0,1,1H20a1,1,0,0,0,1-1Z" transform="translate(0 0)" fill="#fff"/>
    <path id="패스_14284" data-name="패스 14284" d="M19,28.5a1,1,0,0,1-1-1v-9H14v9a1,1,0,0,1-2,0v-10a1,1,0,0,1,1-1h6a1,1,0,0,1,1,1v10A1,1,0,0,1,19,28.5Z" transform="translate(-3.001 -5.003)" fill="#fff"/>
  </g>
</svg>
